<svg width="95" height="40" viewBox="0 0 95 40" fill="none" xmlns="http://www.w3.org/2000/svg">
<g clip-path="url(#clip0)">
<path fill-rule="evenodd" clip-rule="evenodd" d="M0 8.34525V6.44111C0 6.20326 0.318044 5.88574 0.556701 5.88574H22.9112C23.1499 5.88574 23.4679 6.20326 23.4679 6.44111V8.34525C23.4679 8.58327 23.1499 8.90079 22.9112 8.90079H13.4841V29.2117C13.4841 29.4496 13.2455 29.6876 13.0068 29.6876H10.4611C10.2225 29.6876 9.98365 29.4496 9.98365 29.2117V8.90079H0.556701C0.318044 8.90079 0 8.58327 0 8.34525Z" fill="#FFFFFF"/>
<path fill-rule="evenodd" clip-rule="evenodd" d="M26.2534 16.044C22.9122 16.044 20.8039 18.3448 20.8039 21.5582C20.8039 24.8506 22.9122 27.0723 26.2534 27.0723C29.5546 27.0723 31.7027 24.8111 31.7027 21.5582C31.7027 18.3448 29.5546 16.044 26.2534 16.044ZM35.203 21.5582C35.203 27.1516 31.1854 30.0872 26.2534 30.0872C21.3209 30.0872 17.3037 27.1516 17.3037 21.5582C17.3037 15.9647 21.3209 13.0293 26.2534 13.0293C31.2254 13.0293 35.203 15.9647 35.203 21.5582Z" fill="#FFFFFF"/>
<path fill-rule="evenodd" clip-rule="evenodd" d="M37.3521 16.443C37.1135 16.443 36.7949 16.1254 36.7949 15.8874V13.9835C36.7949 13.7453 37.1135 13.4279 37.3521 13.4279H39.4999V9.73867C39.4999 9.50065 39.9374 9.06445 40.1761 9.06445H42.3242C42.5626 9.06445 43.0002 9.50065 43.0002 9.73867V13.4279H48.4098C48.6483 13.4279 48.9665 13.7453 48.9665 13.9835V15.8874C48.9665 16.1254 48.6483 16.443 48.4098 16.443H43.0002V23.9803C43.0002 26.5587 44.0741 27.0744 45.7449 27.0744C46.6599 27.0744 47.7334 26.519 48.3302 26.1618C48.728 25.924 48.9665 26.1223 49.1256 26.4395L49.8018 27.7486C49.9214 27.9868 49.9609 28.0663 49.9609 28.2645C49.9609 28.542 49.8018 28.7006 49.4443 28.8992C48.6483 29.3752 47.0971 30.0892 45.4663 30.0892C41.9262 30.0892 39.4999 28.3835 39.4999 23.9803V16.443H37.3521Z" fill="#FFFFFF"/>
<path fill-rule="evenodd" clip-rule="evenodd" d="M60.5033 16.044C57.1616 16.044 55.0538 18.3448 55.0538 21.5582C55.0538 24.8506 57.1616 27.0723 60.5033 27.0723C63.8048 27.0723 65.9523 24.8111 65.9523 21.5582C65.9523 18.3448 63.8048 16.044 60.5033 16.044ZM69.4531 21.5582C69.4531 27.1516 65.4356 30.0872 60.5033 30.0872C55.5711 30.0872 51.5537 27.1516 51.5537 21.5582C51.5537 15.9647 55.5711 13.0293 60.5033 13.0293C65.4752 13.0293 69.4531 15.9647 69.4531 21.5582Z" fill="#FFFFFF"/>
<path fill-rule="evenodd" clip-rule="evenodd" d="M76.1749 31.2772C75.3796 31.8326 74.7032 32.8242 74.7032 34.0541C74.7032 35.7204 76.334 36.9898 78.8797 36.9898H79.3174C82.4993 36.9898 83.9316 35.4822 83.9316 33.8557C83.9316 32.6655 83.1757 31.2772 80.7497 31.2772H76.1749ZM78.4819 22.7085C80.9482 22.7085 82.2608 21.201 82.2608 19.3764C82.2608 17.5514 80.9482 16.044 78.4819 16.044C76.0158 16.044 74.7032 17.5514 74.7032 19.3764C74.7032 21.201 76.0158 22.7085 78.4819 22.7085ZM78.4819 13.0293C80.5906 13.0293 82.2608 13.7035 83.4143 14.7349H83.4937L83.5734 14.6159C84.2097 13.6638 85.4428 13.0293 87.1135 13.0293C87.5908 13.0293 87.7899 13.1878 87.7899 13.4258V16.0837C87.7899 16.282 87.5111 16.4805 87.3522 16.4805C87.1931 16.4805 87.0741 16.4409 86.6758 16.4409C86.0396 16.4409 85.4428 16.6392 84.9654 17.1151C85.2043 17.8293 85.3634 18.5828 85.3634 19.3764C85.3634 22.907 82.8971 25.7235 78.4819 25.7235C77.0899 25.7235 75.8966 25.446 74.9418 24.9696C74.584 25.3665 74.1465 26.0012 74.1465 26.7551C74.1465 27.826 75.0214 28.3417 76.4136 28.3417H80.7497C85.2442 28.3417 87.4317 30.9202 87.4317 33.7367C87.4317 36.7518 85.1245 40.0045 79.2378 40.0045H79.0789C74.1465 40.0045 71.2031 37.426 71.2031 34.5303C71.2031 32.864 72.0385 31.5549 72.993 30.6028V30.4443C71.7598 29.7301 71.0439 28.5004 71.0439 26.8343C71.0439 25.2873 71.9189 24.0177 72.7939 23.2243C71.9984 22.1533 71.6006 20.8442 71.6006 19.3764C71.6006 15.8457 74.0669 13.0293 78.4819 13.0293Z" fill="#FFFFFF"/>
<path fill-rule="evenodd" clip-rule="evenodd" d="M92.3246 5.49609C93.5179 5.49609 94.4722 6.44816 94.4722 7.63841C94.4722 8.8285 93.5179 9.78024 92.3246 9.78024C91.1312 9.78024 90.1768 8.8285 90.1768 7.63841C90.1768 6.44816 91.1312 5.49609 92.3246 5.49609Z" fill="#FF4F58"/>
<path fill-rule="evenodd" clip-rule="evenodd" d="M94.0753 29.0198C94.0753 29.2581 93.6379 29.6943 93.3994 29.6943H91.2514C91.0127 29.6943 90.5752 29.2581 90.5752 29.0198V14.1042C90.5752 13.8662 91.0127 13.4297 91.2514 13.4297H93.3994C93.6379 13.4297 94.0753 13.8662 94.0753 14.1042V29.0198Z" fill="#FFFFFF"/>
<path fill-rule="evenodd" clip-rule="evenodd" d="M57.996 15.6117C57.2517 12.356 54.3895 10.0819 51.0352 10.0819C50.5471 10.0819 50.0582 10.132 49.5825 10.23L48.0596 10.5444L47.8006 9.01533C47.2188 5.58095 44.2623 3.08855 40.7708 3.08855C37.1059 3.08855 34.0541 5.82558 33.6721 9.455L33.5291 10.814L32.0931 10.7915C29.2326 10.8072 26.6687 12.5107 25.5535 15.1405L22.792 13.976C24.2216 10.6054 27.3271 8.30673 30.9052 7.875C31.9657 3.3626 36.0028 0.0986328 40.7708 0.0986328C45.24 0.0986328 49.0916 2.97351 50.4149 7.11103C50.6215 7.09847 50.8284 7.09202 51.0352 7.09202C55.7977 7.09202 59.8619 10.3221 60.9187 14.9474L57.996 15.6117Z" fill="#FFFFFF"/>
<path fill-rule="evenodd" clip-rule="evenodd" d="M43.0672 37.9094C37.27 37.9094 31.8743 36.5712 28.2641 34.2383C27.5692 33.7894 27.3711 32.8636 27.8213 32.1707C28.2717 31.4776 29.2004 31.2796 29.8944 31.7291C32.9856 33.7267 37.9102 34.9193 43.0672 34.9193C48.2321 34.9193 52.996 33.7806 56.1365 31.7952C56.8367 31.3527 57.762 31.56 58.2053 32.2575C58.6485 32.955 58.441 33.8786 57.7419 34.3206C54.1339 36.6013 48.7853 37.9094 43.0672 37.9094Z" fill="#FF4F58"/>
</g>
<defs>
<clipPath id="clip0">
<rect width="94.6341" height="40" fill="white"/>
</clipPath>
</defs>
</svg>
